<svg xmlns="http://www.w3.org/2000/svg" xmlns:xlink="http://www.w3.org/1999/xlink" width="41" zoomAndPan="magnify" viewBox="0 0 30.75 38.249999" height="51" preserveAspectRatio="xMidYMid meet" version="1.0"><defs><g/><clipPath id="da971fb84b"><path d="M 0.171875 0 L 30.332031 0 L 30.332031 37.515625 L 0.171875 37.515625 Z M 0.171875 0 " clip-rule="nonzero"/></clipPath><clipPath id="94608187e9"><path d="M 0.171875 0 L 30.332031 0 L 30.332031 36 L 0.171875 36 Z M 0.171875 0 " clip-rule="nonzero"/></clipPath><clipPath id="7ba6a3aba6"><path d="M 10.730469 21.148438 L 21.160156 21.148438 L 21.160156 31.273438 L 10.730469 31.273438 Z M 10.730469 21.148438 " clip-rule="nonzero"/></clipPath></defs><g clip-path="url(#da971fb84b)"><path fill="#ffffff" d="M 0.171875 0 L 30.332031 0 L 30.332031 37.515625 L 0.171875 37.515625 Z M 0.171875 0 " fill-opacity="1" fill-rule="nonzero"/><path fill="#ffffff" d="M 0.171875 0 L 30.332031 0 L 30.332031 37.515625 L 0.171875 37.515625 Z M 0.171875 0 " fill-opacity="1" fill-rule="nonzero"/></g><g clip-path="url(#94608187e9)"><path fill="#000000" d="M 28.203125 9.21875 C 28.171875 8.828125 27.84375 8.53125 27.453125 8.535156 L 21.753906 8.535156 L 21.753906 6.375 C 21.753906 2.855469 18.898438 0 15.378906 0 C 11.855469 0 9.003906 2.855469 9.003906 6.375 L 9.003906 8.535156 L 3.304688 8.535156 C 2.914062 8.535156 2.589844 8.832031 2.554688 9.21875 L 0.585938 31.808594 C 0.5 32.855469 0.851562 33.894531 1.5625 34.667969 C 2.273438 35.441406 3.277344 35.882812 4.332031 35.882812 L 26.433594 35.882812 C 27.484375 35.882812 28.488281 35.441406 29.199219 34.667969 C 29.910156 33.894531 30.265625 32.855469 30.175781 31.808594 Z M 10.503906 6.375 C 10.503906 3.683594 12.6875 1.5 15.378906 1.5 C 18.070312 1.5 20.253906 3.683594 20.253906 6.375 L 20.253906 8.535156 L 10.503906 8.535156 Z M 28.089844 33.652344 C 27.667969 34.121094 27.066406 34.386719 26.433594 34.382812 L 4.324219 34.382812 C 3.691406 34.382812 3.089844 34.117188 2.664062 33.652344 C 2.238281 33.1875 2.027344 32.566406 2.082031 31.9375 L 3.984375 10.035156 L 9.003906 10.035156 L 9.003906 14.714844 C 7.796875 15.085938 7.042969 16.285156 7.230469 17.53125 C 7.417969 18.78125 8.492188 19.703125 9.753906 19.703125 C 11.015625 19.703125 12.085938 18.78125 12.273438 17.53125 C 12.460938 16.285156 11.710938 15.085938 10.503906 14.714844 L 10.503906 10.027344 L 20.253906 10.027344 L 20.253906 14.714844 C 19.046875 15.085938 18.292969 16.285156 18.480469 17.53125 C 18.667969 18.78125 19.742188 19.703125 21.003906 19.703125 C 22.265625 19.703125 23.335938 18.78125 23.527344 17.53125 C 23.714844 16.285156 22.960938 15.085938 21.753906 14.714844 L 21.753906 10.027344 L 26.765625 10.027344 L 28.667969 31.929688 C 28.730469 32.558594 28.519531 33.1875 28.089844 33.652344 Z M 9.640625 16.109375 C 9.714844 16.121094 9.789062 16.121094 9.867188 16.109375 C 10.421875 16.171875 10.832031 16.652344 10.800781 17.210938 C 10.773438 17.769531 10.3125 18.203125 9.753906 18.203125 C 9.195312 18.203125 8.734375 17.769531 8.703125 17.210938 C 8.675781 16.652344 9.085938 16.171875 9.640625 16.109375 Z M 20.890625 16.109375 C 20.964844 16.121094 21.042969 16.121094 21.117188 16.109375 C 21.671875 16.171875 22.082031 16.652344 22.050781 17.210938 C 22.023438 17.769531 21.5625 18.203125 21.003906 18.203125 C 20.445312 18.203125 19.984375 17.769531 19.957031 17.210938 C 19.925781 16.652344 20.335938 16.171875 20.890625 16.109375 Z M 20.890625 16.109375 " fill-opacity="1" fill-rule="nonzero"/></g><path fill="#29a867" d="M 18.640625 28.207031 C 18.640625 28.667969 18.53125 29.09375 18.3125 29.492188 C 18.089844 29.878906 17.753906 30.195312 17.304688 30.433594 C 16.855469 30.671875 16.304688 30.789062 15.648438 30.789062 C 15.015625 30.789062 14.445312 30.679688 13.941406 30.457031 C 13.4375 30.230469 13.039062 29.910156 12.738281 29.503906 C 12.4375 29.097656 12.265625 28.632812 12.222656 28.101562 L 13.835938 28.101562 C 13.878906 28.507812 14.050781 28.855469 14.351562 29.148438 C 14.660156 29.4375 15.070312 29.585938 15.582031 29.585938 C 16.042969 29.585938 16.394531 29.460938 16.644531 29.214844 C 16.898438 28.964844 17.027344 28.648438 17.027344 28.261719 C 17.027344 27.925781 16.933594 27.652344 16.75 27.441406 C 16.5625 27.21875 16.335938 27.046875 16.058594 26.921875 C 15.785156 26.800781 15.410156 26.660156 14.933594 26.5 C 14.351562 26.3125 13.875 26.128906 13.503906 25.945312 C 13.144531 25.757812 12.835938 25.488281 12.578125 25.136719 C 12.320312 24.78125 12.195312 24.320312 12.195312 23.746094 C 12.195312 23.242188 12.316406 22.800781 12.566406 22.421875 C 12.8125 22.042969 13.164062 21.75 13.625 21.546875 C 14.082031 21.335938 14.613281 21.230469 15.214844 21.230469 C 16.167969 21.230469 16.921875 21.460938 17.476562 21.917969 C 18.042969 22.378906 18.363281 22.976562 18.445312 23.71875 L 16.816406 23.71875 C 16.753906 23.367188 16.585938 23.066406 16.3125 22.820312 C 16.046875 22.5625 15.679688 22.433594 15.214844 22.433594 C 14.789062 22.433594 14.449219 22.546875 14.195312 22.765625 C 13.9375 22.976562 13.808594 23.285156 13.808594 23.691406 C 13.808594 24.011719 13.898438 24.273438 14.074219 24.488281 C 14.25 24.691406 14.472656 24.851562 14.738281 24.976562 C 15.011719 25.089844 15.378906 25.230469 15.847656 25.386719 C 16.441406 25.574219 16.921875 25.761719 17.292969 25.957031 C 17.671875 26.140625 17.988281 26.414062 18.246094 26.777344 C 18.511719 27.140625 18.640625 27.617188 18.640625 28.207031 Z M 18.640625 28.207031 " fill-opacity="1" fill-rule="nonzero"/><g clip-path="url(#7ba6a3aba6)"><path fill="#ffffff" d="M 10.730469 21.148438 L 21.167969 21.148438 L 21.167969 31.273438 L 10.730469 31.273438 Z M 10.730469 21.148438 " fill-opacity="1" fill-rule="nonzero"/></g><g fill="#0d6efd" fill-opacity="1"><g transform="translate(11.57452, 31.556249)"><g><path d="M 6.421875 -9.8125 C 6.691406 -9.539062 6.8125 -9.171875 6.78125 -8.703125 C 6.738281 -8.316406 6.617188 -7.976562 6.421875 -7.6875 L 3.0625 -2.65625 C 3.507812 -2.6875 3.84375 -2.726562 4.0625 -2.78125 C 4.613281 -2.882812 5.234375 -3.066406 5.921875 -3.328125 C 5.941406 -3.335938 5.972656 -3.34375 6.015625 -3.34375 C 6.109375 -3.34375 6.179688 -3.3125 6.234375 -3.25 C 6.296875 -3.195312 6.328125 -3.125 6.328125 -3.03125 L 6.265625 -0.90625 C 6.265625 -0.75 6.191406 -0.660156 6.046875 -0.640625 C 5.242188 -0.410156 4.453125 -0.238281 3.671875 -0.125 C 3.148438 -0.0390625 2.648438 0 2.171875 0 C 1.546875 0 1.035156 -0.113281 0.640625 -0.34375 C 0.117188 -0.632812 -0.140625 -1.039062 -0.140625 -1.5625 C -0.140625 -1.925781 -0.0078125 -2.398438 0.25 -2.984375 C 0.3125 -3.097656 0.382812 -3.222656 0.46875 -3.359375 C 0.5625 -3.503906 0.648438 -3.640625 0.734375 -3.765625 L 1.234375 -4.53125 C 1.472656 -4.863281 1.644531 -5.113281 1.75 -5.28125 L 3.28125 -7.53125 L 0.59375 -6.96875 L 0.515625 -6.953125 C 0.421875 -6.953125 0.34375 -6.984375 0.28125 -7.046875 C 0.226562 -7.109375 0.207031 -7.175781 0.21875 -7.25 L 0.265625 -9.375 C 0.265625 -9.539062 0.351562 -9.640625 0.53125 -9.671875 L 3.984375 -10.1875 C 4.429688 -10.238281 4.753906 -10.265625 4.953125 -10.265625 C 5.628906 -10.265625 6.117188 -10.113281 6.421875 -9.8125 Z M 0.625 -9.171875 C 0.675781 -9.222656 0.703125 -9.265625 0.703125 -9.296875 C 0.703125 -9.335938 0.691406 -9.359375 0.671875 -9.359375 C 0.648438 -9.367188 0.632812 -9.390625 0.625 -9.421875 C 0.625 -9.367188 0.59375 -9.332031 0.53125 -9.3125 C 0.550781 -9.289062 0.570312 -9.265625 0.59375 -9.234375 C 0.613281 -9.210938 0.625 -9.191406 0.625 -9.171875 Z M 0.90625 -9.34375 L 0.859375 -9.34375 L 0.859375 -9.296875 L 0.90625 -9.296875 Z M 0.859375 -8.796875 L 0.765625 -8.8125 L 0.765625 -8.78125 L 0.828125 -8.765625 Z M 2.15625 -8.40625 L 2.234375 -8.40625 L 2.234375 -8.46875 L 2.15625 -8.46875 Z M 3.53125 -8.421875 L 3.46875 -8.421875 L 3.46875 -8.34375 L 3.53125 -8.34375 Z M 1.65625 -8.375 C 1.65625 -8.363281 1.644531 -8.335938 1.625 -8.296875 C 1.613281 -8.253906 1.617188 -8.21875 1.640625 -8.1875 C 1.703125 -8.1875 1.75 -8.179688 1.78125 -8.171875 L 1.84375 -8.234375 L 1.84375 -8.296875 L 1.734375 -8.375 Z M 3.15625 -8.25 C 3.164062 -8.28125 3.171875 -8.300781 3.171875 -8.3125 L 3.171875 -8.375 L 3.0625 -8.375 L 3.0625 -8.265625 C 3.0625 -8.253906 3.078125 -8.25 3.109375 -8.25 Z M 2.078125 -8.125 C 2.078125 -8.164062 2.09375 -8.195312 2.125 -8.21875 C 2.15625 -8.238281 2.175781 -8.253906 2.1875 -8.265625 L 2.140625 -8.296875 L 2.125 -8.3125 C 2.050781 -8.289062 1.992188 -8.257812 1.953125 -8.21875 C 1.921875 -8.1875 1.90625 -8.164062 1.90625 -8.15625 L 1.984375 -8.109375 L 2.078125 -8.109375 Z M 1.578125 -8.28125 L 1.4375 -8.28125 L 1.4375 -8.25 L 1.578125 -8.25 Z M 2.453125 -8.28125 C 2.421875 -8.257812 2.40625 -8.238281 2.40625 -8.21875 L 2.6875 -8.15625 L 2.703125 -8.25 C 2.679688 -8.25 2.660156 -8.25 2.640625 -8.25 C 2.597656 -8.269531 2.535156 -8.28125 2.453125 -8.28125 Z M 4.4375 -8.203125 L 4.359375 -8.21875 L 4.34375 -8.171875 L 4.4375 -8.140625 Z M 1.875 -8.125 L 1.65625 -8.171875 L 1.65625 -8.078125 Z M 2.09375 -7.921875 C 2.101562 -7.929688 2.109375 -7.945312 2.109375 -7.96875 L 2.0625 -8 L 1.96875 -8.015625 L 1.9375 -8 C 1.9375 -8 1.929688 -8 1.921875 -8 C 1.910156 -8 1.90625 -7.988281 1.90625 -7.96875 C 1.90625 -7.925781 1.910156 -7.90625 1.921875 -7.90625 L 1.9375 -7.875 L 2.0625 -7.859375 L 2.0625 -7.890625 C 2.070312 -7.898438 2.078125 -7.90625 2.078125 -7.90625 Z M 2.28125 -7.984375 L 2.25 -7.984375 C 2.25 -7.984375 2.242188 -7.984375 2.234375 -7.984375 C 2.234375 -7.992188 2.234375 -8 2.234375 -8 L 2.171875 -8 C 2.140625 -7.96875 2.125 -7.9375 2.125 -7.90625 C 2.125 -7.875 2.15625 -7.84375 2.21875 -7.8125 L 2.28125 -7.875 Z M 3.296875 -7.9375 C 3.296875 -7.90625 3.316406 -7.875 3.359375 -7.84375 C 3.378906 -7.863281 3.390625 -7.898438 3.390625 -7.953125 L 3.359375 -7.953125 L 3.328125 -7.9375 Z M 2.78125 -7.8125 C 2.707031 -7.832031 2.640625 -7.84375 2.578125 -7.84375 L 2.703125 -7.84375 C 2.660156 -7.90625 2.617188 -7.9375 2.578125 -7.9375 L 2.5625 -7.84375 L 2.578125 -7.84375 C 2.515625 -7.84375 2.46875 -7.804688 2.4375 -7.734375 L 2.53125 -7.734375 C 2.550781 -7.710938 2.597656 -7.703125 2.671875 -7.703125 C 2.734375 -7.703125 2.769531 -7.71875 2.78125 -7.75 Z M 1.8125 -7.78125 L 1.8125 -7.84375 L 1.71875 -7.84375 L 1.71875 -7.78125 Z M 1.84375 -7.625 L 1.828125 -7.640625 L 1.765625 -7.671875 L 1.734375 -7.640625 L 1.71875 -7.609375 L 1.75 -7.59375 C 1.769531 -7.570312 1.789062 -7.570312 1.8125 -7.59375 Z M 3.859375 -6.78125 C 3.921875 -6.8125 3.957031 -6.84375 3.96875 -6.875 L 3.828125 -6.984375 C 3.828125 -6.929688 3.816406 -6.882812 3.796875 -6.84375 C 3.835938 -6.800781 3.859375 -6.78125 3.859375 -6.78125 Z M 3.46875 -6.578125 C 3.4375 -6.578125 3.421875 -6.585938 3.421875 -6.609375 L 3.328125 -6.5625 C 3.328125 -6.519531 3.335938 -6.492188 3.359375 -6.484375 C 3.390625 -6.503906 3.414062 -6.503906 3.4375 -6.484375 Z M 6.125 -2.703125 C 6.175781 -2.679688 6.210938 -2.6875 6.234375 -2.71875 L 6.1875 -2.75 C 6.15625 -2.75 6.132812 -2.753906 6.125 -2.765625 Z M 4.96875 -2.65625 C 4.976562 -2.65625 4.988281 -2.648438 5 -2.640625 C 5.007812 -2.640625 5.019531 -2.640625 5.03125 -2.640625 C 5.050781 -2.617188 5.070312 -2.617188 5.09375 -2.640625 L 5.09375 -2.6875 L 4.96875 -2.6875 Z M 6.03125 -2.671875 C 6.03125 -2.671875 6.03125 -2.664062 6.03125 -2.65625 C 6.039062 -2.65625 6.046875 -2.65625 6.046875 -2.65625 L 6.0625 -2.65625 L 6.046875 -2.6875 Z M 3.203125 -1.71875 L 3.234375 -1.71875 L 3.234375 -1.8125 L 3.203125 -1.8125 Z M 4.796875 -1.6875 L 4.8125 -1.65625 L 4.859375 -1.6875 L 4.859375 -1.703125 Z M 4.734375 -1.671875 C 4.671875 -1.691406 4.640625 -1.6875 4.640625 -1.65625 C 4.640625 -1.644531 4.65625 -1.640625 4.6875 -1.640625 C 4.71875 -1.640625 4.734375 -1.644531 4.734375 -1.65625 Z M 3.828125 -1.59375 L 3.890625 -1.609375 L 3.890625 -1.640625 L 3.828125 -1.609375 Z M 4.375 -1.59375 L 4.421875 -1.59375 L 4.421875 -1.640625 L 4.375 -1.640625 Z M 5.546875 -1.15625 L 5.5625 -1.140625 L 5.609375 -1.15625 L 5.609375 -1.171875 Z M 2.84375 -0.796875 C 2.863281 -0.796875 2.878906 -0.789062 2.890625 -0.78125 L 3.328125 -0.78125 C 3.328125 -0.769531 3.347656 -0.765625 3.390625 -0.765625 L 3.421875 -0.75 C 3.484375 -0.757812 3.515625 -0.765625 3.515625 -0.765625 C 3.515625 -0.742188 3.519531 -0.734375 3.53125 -0.734375 C 3.613281 -0.734375 3.703125 -0.75 3.796875 -0.78125 Z M 2.84375 -0.796875 "/></g></g></g></svg>